<?xml version="1.0" encoding="UTF-8"?>
<svg id="Layer_1" data-name="Layer 1" xmlns="http://www.w3.org/2000/svg" version="1.1" viewBox="0 0 500 200">
  <path d="M54.8,74.45c.27,0,.45.17.55.5.1.33.05.57-.15.7l-11,5.2c-.4.13-.67.2-.8.2-.87,0-1.6-.73-2.2-2.2-.6-1.47-.93-3.5-1-6.1-2.47,2.6-5.05,4.7-7.75,6.3s-5.72,2.4-9.05,2.4c-2.8,0-5.38-.8-7.75-2.4-2.37-1.6-4.27-3.85-5.7-6.75-1.43-2.9-2.15-6.22-2.15-9.95,0-4.73,1.17-8.77,3.5-12.1,2.33-3.33,5.27-5.83,8.8-7.5,3.53-1.67,7.03-2.5,10.5-2.5s6.73.87,9.6,2.6v-22.4c0-2.4-.25-4.13-.75-5.2-.5-1.07-1.35-1.6-2.55-1.6-.87,0-2.4.47-4.6,1.4h-.2c-.27,0-.45-.15-.55-.45-.1-.3-.05-.52.15-.65l12.7-6.2c.13-.07.3-.1.5-.1.13,0,.32.08.55.25.23.17.35.35.35.55v60.7c0,2.4.28,4.13.85,5.2.57,1.07,1.48,1.6,2.75,1.6,1.93,0,3.67-.47,5.2-1.4l.2-.1ZM34,76.1c2.07-1.17,4.13-2.82,6.2-4.95v-22c-1.6-2.2-3.37-3.9-5.3-5.1-1.93-1.2-4.27-1.8-7-1.8-4.2,0-7.52,1.48-9.95,4.45-2.43,2.97-3.65,7.18-3.65,12.65,0,3.67.57,6.9,1.7,9.7,1.13,2.8,2.68,4.97,4.65,6.5,1.97,1.53,4.18,2.3,6.65,2.3s4.63-.58,6.7-1.75Z" fill="#000" stroke-width="0"/>
  <path d="M136.9,74.75c.27,0,.43.15.5.45.07.3-.03.52-.3.65l-10.3,4.9c-.27.13-.53.2-.8.2-.87,0-1.63-.58-2.3-1.75-.67-1.17-1.1-2.75-1.3-4.75l-5.2,3.4c-1.67,1.07-3.13,1.83-4.4,2.3-1.27.47-2.6.7-4,.7-2.47,0-4.38-.65-5.75-1.95-1.37-1.3-2.05-2.95-2.05-4.95s.8-3.73,2.4-5.2c1.6-1.47,4.23-2.87,7.9-4.2l11-4.1v-6.8c0-7.47-2.1-11.2-6.3-11.2-2.27,0-3.98.75-5.15,2.25-1.17,1.5-1.95,3.22-2.35,5.15-.2,1.2-.57,2.18-1.1,2.95-.53.77-1.43,1.15-2.7,1.15-1.07,0-1.88-.3-2.45-.9-.57-.6-.85-1.3-.85-2.1,0-1.6,1.03-3.2,3.1-4.8,2.07-1.6,4.53-2.93,7.4-4,2.87-1.07,5.43-1.6,7.7-1.6,2.73,0,4.8.87,6.2,2.6,1.4,1.73,2.1,4.23,2.1,7.5v18.7c0,2.33.3,4.03.9,5.1.6,1.07,1.6,1.6,3,1.6,1.27,0,2.9-.43,4.9-1.3h.2ZM122.3,73.05v-11.2l-9.3,3.6c-1.87.73-3.22,1.58-4.05,2.55-.83.97-1.25,2.12-1.25,3.45,0,1.6.52,2.95,1.55,4.05,1.03,1.1,2.38,1.65,4.05,1.65,1.33,0,2.93-.53,4.8-1.6l4.2-2.5Z" fill="#000" stroke-width="0"/>
  <path d="M251.9,79.55c0,.4-.13.6-.4.6-1.53,0-2.77-.03-3.7-.1l-5.4-.1-5.4.1c-.93.07-2.17.1-3.7.1-.2,0-.3-.2-.3-.6s.1-.6.3-.6c1.8,0,3.13-.18,4-.55.87-.37,1.47-1.03,1.8-2,.33-.97.5-2.42.5-4.35v-15.9c0-3.93-.7-6.85-2.1-8.75-1.4-1.9-3.57-2.85-6.5-2.85-2,0-4.02.55-6.05,1.65-2.03,1.1-3.92,2.65-5.65,4.65.07.33.1.87.1,1.6v19.6c0,2,.17,3.47.5,4.4.33.93.93,1.58,1.8,1.95.87.37,2.2.55,4,.55.2,0,.3.2.3.6s-.1.6-.3.6c-1.53,0-2.77-.03-3.7-.1l-5.4-.1-5.5.1c-.87.07-2.07.1-3.6.1-.2,0-.3-.2-.3-.6s.1-.6.3-.6c1.8,0,3.13-.18,4-.55.87-.37,1.45-1.02,1.75-1.95.3-.93.45-2.4.45-4.4v-15.9c0-3.93-.7-6.85-2.1-8.75-1.4-1.9-3.53-2.85-6.4-2.85-2,0-4,.53-6,1.6-2,1.07-3.83,2.57-5.5,4.5v21.4c0,2,.15,3.47.45,4.4.3.93.88,1.58,1.75,1.95.87.37,2.2.55,4,.55.2,0,.3.2.3.6s-.1.6-.3.6c-1.53,0-2.73-.03-3.6-.1l-5.4-.1-5.5.1c-.87.07-2.07.1-3.6.1-.2,0-.3-.2-.3-.6s.1-.6.3-.6c1.8,0,3.13-.18,4-.55.87-.37,1.45-1.02,1.75-1.95.3-.93.45-2.4.45-4.4v-19.8c0-2.27-.27-3.9-.8-4.9-.53-1-1.43-1.5-2.7-1.5-1.07,0-2.87.5-5.4,1.5h-.2c-.27,0-.45-.15-.55-.45-.1-.3-.02-.52.25-.65l11.6-5.5.6-.1c.6,0,1.23.77,1.9,2.3.67,1.53,1,3.5,1,5.9v.1c2.4-2.93,4.8-5.07,7.2-6.4,2.4-1.33,4.9-2,7.5-2,3,0,5.43.73,7.3,2.2,1.87,1.47,3.03,3.67,3.5,6.6,2.47-3,4.93-5.22,7.4-6.65,2.47-1.43,5.03-2.15,7.7-2.15,3.53,0,6.25,1.02,8.15,3.05,1.9,2.03,2.85,5.05,2.85,9.05v19.4c0,2,.15,3.47.45,4.4.3.93.88,1.58,1.75,1.95.87.37,2.2.55,4,.55.27,0,.4.2.4.6Z" fill="#000" stroke-width="0"/>
  <path d="M298.7,79.55c0-.4.07-.6.2-.6,1.8,0,3.15-.18,4.05-.55.9-.37,1.52-1.03,1.85-2,.33-.97.5-2.42.5-4.35v-18.7c0-2.4-.25-4.13-.75-5.2-.5-1.07-1.35-1.6-2.55-1.6s-2.7.47-4.5,1.4h-.1c-.27,0-.47-.17-.6-.5-.13-.33-.1-.57.1-.7l13-6,.4-.1c.13,0,.3.08.5.25.2.17.3.35.3.55,0,.47-.03,1.8-.1,4-.07,2.2-.1,4.8-.1,7.8v18.8c0,2,.17,3.47.5,4.4.33.93.93,1.58,1.8,1.95.87.37,2.2.55,4,.55.2,0,.3.2.3.6s-.1.6-.3.6c-1.53,0-2.77-.03-3.7-.1l-5.4-.1-5.4.1c-.93.07-2.2.1-3.8.1-.13,0-.2-.2-.2-.6ZM304.05,27.85c-.77-.73-1.15-1.77-1.15-3.1s.38-2.37,1.15-3.1c.77-.73,1.85-1.1,3.25-1.1s2.37.37,3.1,1.1c.73.73,1.1,1.77,1.1,3.1s-.37,2.37-1.1,3.1c-.73.73-1.77,1.1-3.1,1.1-1.4,0-2.48-.37-3.25-1.1Z" fill="#000" stroke-width="0"/>
  <path d="M402.4,74.75c.27,0,.43.15.5.45.07.3-.03.52-.3.65l-10.3,4.9c-.27.13-.53.2-.8.2-.87,0-1.63-.58-2.3-1.75-.67-1.17-1.1-2.75-1.3-4.75l-5.2,3.4c-1.67,1.07-3.13,1.83-4.4,2.3-1.27.47-2.6.7-4,.7-2.47,0-4.38-.65-5.75-1.95-1.37-1.3-2.05-2.95-2.05-4.95s.8-3.73,2.4-5.2c1.6-1.47,4.23-2.87,7.9-4.2l11-4.1v-6.8c0-7.47-2.1-11.2-6.3-11.2-2.27,0-3.98.75-5.15,2.25-1.17,1.5-1.95,3.22-2.35,5.15-.2,1.2-.57,2.18-1.1,2.95-.53.77-1.43,1.15-2.7,1.15-1.07,0-1.88-.3-2.45-.9-.57-.6-.85-1.3-.85-2.1,0-1.6,1.03-3.2,3.1-4.8,2.07-1.6,4.53-2.93,7.4-4,2.87-1.07,5.43-1.6,7.7-1.6,2.73,0,4.8.87,6.2,2.6,1.4,1.73,2.1,4.23,2.1,7.5v18.7c0,2.33.3,4.03.9,5.1.6,1.07,1.6,1.6,3,1.6,1.27,0,2.9-.43,4.9-1.3h.2ZM387.8,73.05v-11.2l-9.3,3.6c-1.87.73-3.22,1.58-4.05,2.55-.83.97-1.25,2.12-1.25,3.45,0,1.6.52,2.95,1.55,4.05,1.03,1.1,2.38,1.65,4.05,1.65,1.33,0,2.93-.53,4.8-1.6l4.2-2.5Z" fill="#000" stroke-width="0"/>
  <path d="M492.6,79.55c0,.4-.1.6-.3.6-1.53,0-2.73-.03-3.6-.1l-5.4-.1-5.5.1c-.87.07-2.07.1-3.6.1-.2,0-.3-.2-.3-.6s.1-.6.3-.6c1.8,0,3.13-.18,4-.55.87-.37,1.45-1.02,1.75-1.95.3-.93.45-2.4.45-4.4v-16.2c0-3.93-.75-6.83-2.25-8.7-1.5-1.87-3.82-2.8-6.95-2.8-2.07,0-4.15.55-6.25,1.65-2.1,1.1-4.02,2.62-5.75,4.55v21.5c0,2,.15,3.47.45,4.4.3.93.88,1.58,1.75,1.95.87.37,2.2.55,4,.55.2,0,.3.2.3.6s-.1.6-.3.6c-1.54,0-2.73-.03-3.6-.1l-5.4-.1-5.5.1c-.87.07-2.07.1-3.6.1-.2,0-.3-.2-.3-.6s.1-.6.3-.6c1.8,0,3.13-.18,4-.55.87-.37,1.45-1.02,1.75-1.95.3-.93.45-2.4.45-4.4v-19.8c0-2.27-.27-3.9-.8-4.9-.53-1-1.43-1.5-2.7-1.5-1.07,0-2.87.5-5.4,1.5h-.2c-.27,0-.45-.15-.55-.45-.1-.3-.02-.52.25-.65l11.6-5.5.6-.1c.6,0,1.23.77,1.9,2.3.67,1.53,1,3.5,1,5.9,2.53-2.93,5.05-5.1,7.55-6.5,2.5-1.4,5.08-2.1,7.75-2.1,3.73,0,6.6,1.03,8.6,3.1,2,2.07,3,5.1,3,9.1v19.6c0,2,.15,3.47.45,4.4.3.93.88,1.58,1.75,1.95.87.37,2.2.55,4,.55.2,0,.3.2.3.6Z" fill="#000" stroke-width="0"/>
  <path d="M71.9,127.35c2.47,1.4,4.43,3.48,5.9,6.25,1.47,2.77,2.2,6.15,2.2,10.15,0,4.8-1.05,8.92-3.15,12.35s-4.83,6.02-8.2,7.75c-3.37,1.73-6.92,2.6-10.65,2.6-5.13,0-9.67-1.47-13.6-4.4l-7.6,3.6h-.2c-.27,0-.43-.13-.5-.4-.07-.27,0-.46.2-.6,2.13-1.47,3.63-2.85,4.5-4.15.87-1.3,1.3-3.18,1.3-5.65v-49.4c0-2.4-.25-4.13-.75-5.2-.5-1.07-1.35-1.6-2.55-1.6-.93,0-2.43.43-4.5,1.3h-.2c-.2,0-.35-.17-.45-.5-.1-.33-.05-.53.15-.6l12.5-6.1.5-.1c.13,0,.32.08.55.25.23.17.35.35.35.55v40.5c2.53-2.67,5.07-4.78,7.6-6.35,2.53-1.57,5.4-2.35,8.6-2.35,2.87,0,5.53.7,8,2.1ZM70.15,160.05c2.17-3,3.25-7.3,3.25-12.9,0-6-1.17-10.6-3.5-13.8-2.33-3.2-5.43-4.8-9.3-4.8-2.27,0-4.43.62-6.5,1.85-2.07,1.23-4.2,2.95-6.4,5.15v16.4c0,2.93.72,5.33,2.15,7.2,1.43,1.87,3.18,3.23,5.25,4.1,2.07.87,4.07,1.3,6,1.3,3.87,0,6.88-1.5,9.05-4.5Z" fill="#000" stroke-width="0"/>
  <path d="M136.55,163.6c-2.97-1.9-5.25-4.47-6.85-7.7-1.6-3.23-2.4-6.75-2.4-10.55,0-4.33,1.05-8.02,3.15-11.05,2.1-3.03,4.8-5.3,8.1-6.8,3.3-1.5,6.65-2.25,10.05-2.25,3.93,0,7.37.97,10.3,2.9,2.93,1.93,5.18,4.48,6.75,7.65,1.57,3.17,2.35,6.52,2.35,10.05,0,4.13-.97,7.75-2.9,10.85-1.93,3.1-4.52,5.5-7.75,7.2-3.23,1.7-6.75,2.55-10.55,2.55s-7.28-.95-10.25-2.85ZM158.2,160.65c2-2.6,3-6.6,3-12,0-4.13-.68-7.83-2.05-11.1-1.37-3.27-3.25-5.82-5.65-7.65-2.4-1.83-5.13-2.75-8.2-2.75-3.6,0-6.38,1.3-8.35,3.9-1.97,2.6-2.95,6.33-2.95,11.2,0,4.07.67,7.8,2,11.2,1.33,3.4,3.2,6.1,5.6,8.1,2.4,2,5.1,3,8.1,3,3.67,0,6.5-1.3,8.5-3.9Z" fill="#000" stroke-width="0"/>
  <path d="M255,127.15c0,.4-.1.6-.3.6-1.67,0-3.1.6-4.3,1.8-1.2,1.2-2.33,3.17-3.4,5.9l-12.2,32.5c-2.47,6.47-4.78,11.52-6.95,15.15-2.17,3.63-4.4,6.23-6.7,7.8-2.3,1.57-4.95,2.35-7.95,2.35-1.47,0-2.68-.33-3.65-1-.97-.67-1.45-1.63-1.45-2.9,0-.93.3-1.67.9-2.2.6-.53,1.33-.8,2.2-.8s1.6.1,2.2.3c.6.2,1.23.53,1.9,1,.13.07.52.27,1.15.6.63.33,1.42.5,2.35.5,1.6,0,3.12-.7,4.55-2.1,1.43-1.4,2.97-3.75,4.6-7.05,1.63-3.3,3.55-7.85,5.75-13.65l-15.2-31.1c-1.53-2.93-2.7-4.85-3.5-5.75-.8-.9-1.83-1.35-3.1-1.35-.13,0-.2-.2-.2-.6s.07-.6.2-.6l3.4.1c.8.07,1.9.1,3.3.1l6.4-.1c.93-.07,2.23-.1,3.9-.1.13,0,.2.2.2.6s-.07.6-.2.6c-3.87,0-5.8.77-5.8,2.3,0,.4.17.93.5,1.6l13.2,27.1,8-23c.53-1.6.8-2.87.8-3.8,0-1.53-.6-2.62-1.8-3.25-1.2-.63-3.17-.95-5.9-.95-.13,0-.2-.2-.2-.6s.07-.6.2-.6c1.8,0,3.17.04,4.1.1l6,.1,3.6-.1c.67-.07,1.7-.1,3.1-.1.2,0,.3.2.3.6Z" fill="#000" stroke-width="0"/>
  <path d="M298.8,164.55c0-.4.1-.6.3-.6,1.8,0,3.13-.18,4-.55.87-.37,1.47-1.03,1.8-2,.33-.97.5-2.42.5-4.35v-51.7c0-2.4-.23-4.13-.7-5.2-.47-1.07-1.3-1.6-2.5-1.6-1,0-2.53.47-4.6,1.4h-.2c-.2,0-.35-.17-.45-.5-.1-.33-.05-.53.15-.6l12.8-6.1c.13-.07.3-.1.5-.1.13,0,.32.08.55.25.23.17.35.35.35.55v63.6c0,1.93.15,3.37.45,4.3.3.93.88,1.6,1.75,2,.87.4,2.2.6,4,.6.2,0,.3.2.3.6s-.1.6-.3.6c-1.47,0-2.67-.03-3.6-.1l-5.6-.1-5.4.1c-.93.07-2.2.1-3.8.1-.2,0-.3-.2-.3-.6Z" fill="#000" stroke-width="0"/>
  <path d="M402.4,159.75c.27,0,.43.15.5.45.07.3-.03.52-.3.65l-10.3,4.9c-.27.13-.53.2-.8.2-.87,0-1.63-.58-2.3-1.75-.67-1.17-1.1-2.75-1.3-4.75l-5.2,3.4c-1.67,1.07-3.13,1.83-4.4,2.3-1.27.47-2.6.7-4,.7-2.47,0-4.38-.65-5.75-1.95-1.37-1.3-2.05-2.95-2.05-4.95s.8-3.73,2.4-5.2c1.6-1.47,4.23-2.87,7.9-4.2l11-4.1v-6.8c0-7.47-2.1-11.2-6.3-11.2-2.27,0-3.98.75-5.15,2.25-1.17,1.5-1.95,3.22-2.35,5.15-.2,1.2-.57,2.18-1.1,2.95-.53.77-1.43,1.15-2.7,1.15-1.07,0-1.88-.3-2.45-.9-.57-.6-.85-1.3-.85-2.1,0-1.6,1.03-3.2,3.1-4.8,2.07-1.6,4.53-2.93,7.4-4,2.87-1.07,5.43-1.6,7.7-1.6,2.73,0,4.8.87,6.2,2.6,1.4,1.73,2.1,4.23,2.1,7.5v18.7c0,2.33.3,4.03.9,5.1.6,1.07,1.6,1.6,3,1.6,1.27,0,2.9-.43,4.9-1.3h.2ZM387.8,158.05v-11.2l-9.3,3.6c-1.87.73-3.22,1.58-4.05,2.55-.83.97-1.25,2.12-1.25,3.45,0,1.6.52,2.95,1.55,4.05,1.03,1.1,2.38,1.65,4.05,1.65,1.33,0,2.93-.53,4.8-1.6l4.2-2.5Z" fill="#000" stroke-width="0"/>
  <path d="M492.6,164.55c0,.4-.1.6-.3.6-1.53,0-2.73-.03-3.6-.1l-5.4-.1-5.5.1c-.87.07-2.07.1-3.6.1-.2,0-.3-.2-.3-.6s.1-.6.3-.6c1.8,0,3.13-.18,4-.55.87-.37,1.45-1.02,1.75-1.95.3-.93.45-2.4.45-4.4v-16.2c0-3.93-.75-6.83-2.25-8.7-1.5-1.87-3.82-2.8-6.95-2.8-2.07,0-4.15.55-6.25,1.65-2.1,1.1-4.02,2.62-5.75,4.55v21.5c0,2,.15,3.47.45,4.4.3.93.88,1.58,1.75,1.95.87.37,2.2.55,4,.55.2,0,.3.2.3.6s-.1.6-.3.6c-1.54,0-2.73-.03-3.6-.1l-5.4-.1-5.5.1c-.87.07-2.07.1-3.6.1-.2,0-.3-.2-.3-.6s.1-.6.3-.6c1.8,0,3.13-.18,4-.55.87-.37,1.45-1.02,1.75-1.95.3-.93.45-2.4.45-4.4v-19.8c0-2.27-.27-3.9-.8-4.9-.53-1-1.43-1.5-2.7-1.5-1.07,0-2.87.5-5.4,1.5h-.2c-.27,0-.45-.15-.55-.45-.1-.3-.02-.52.25-.65l11.6-5.5.6-.1c.6,0,1.23.77,1.9,2.3.67,1.53,1,3.5,1,5.9,2.53-2.93,5.05-5.1,7.55-6.5,2.5-1.4,5.08-2.1,7.75-2.1,3.73,0,6.6,1.03,8.6,3.1s3,5.1,3,9.1v19.6c0,2,.15,3.47.45,4.4.3.93.88,1.58,1.75,1.95.87.37,2.2.55,4,.55.2,0,.3.2.3.6Z" fill="#000" stroke-width="0"/>
</svg>