<?xml version="1.0" encoding="UTF-8"?>
<svg id="Layer_1" data-name="Layer 1" xmlns="http://www.w3.org/2000/svg" version="1.1" viewBox="0 0 500 500">
  <path d="M247.49,381.22c1.14,0,1.94.74,2.37,2.2.43,1.47.22,2.5-.65,3.08l-47.38,22.9c-1.72.58-2.87.88-3.45.88-3.73,0-6.89-3.23-9.48-9.69-2.58-6.46-4.02-15.41-4.31-26.87-10.63,11.45-21.75,20.7-33.38,27.75s-24.62,10.57-38.98,10.57c-12.06,0-23.19-3.52-33.38-10.57-10.2-7.05-18.38-16.96-24.55-29.73-6.18-12.77-9.26-27.38-9.26-43.82,0-20.84,5.02-38.6,15.07-53.29,10.05-14.68,22.68-25.69,37.9-33.03,15.22-7.34,30.29-11.01,45.22-11.01s29,3.82,41.35,11.45v-98.65c0-10.57-1.08-18.2-3.23-22.9-2.15-4.69-5.81-7.05-10.98-7.05-3.73,0-10.34,2.06-19.81,6.17h-.86c-1.15,0-1.94-.66-2.37-1.98s-.22-2.27.65-2.86l54.7-27.31c.57-.29,1.29-.44,2.15-.44.57,0,1.36.37,2.37,1.1,1,.74,1.51,1.54,1.51,2.42v267.33c0,10.57,1.22,18.21,3.66,22.9,2.44,4.7,6.39,7.05,11.84,7.05,8.32,0,15.79-2.05,22.4-6.17l.86-.44ZM157.91,388.48c8.9-5.13,17.8-12.4,26.7-21.8v-96.89c-6.89-9.69-14.5-17.18-22.83-22.46-8.33-5.29-18.38-7.93-30.15-7.93-18.09,0-32.38,6.54-42.85,19.6-10.48,13.07-15.72,31.64-15.72,55.71,0,16.15,2.44,30.39,7.32,42.72,4.88,12.33,11.55,21.88,20.03,28.63,8.47,6.76,18.02,10.13,28.64,10.13s19.95-2.57,28.86-7.71Z" fill="#fff" stroke-width="0"/>
  <path d="M418.91,239.84c10.62,6.17,19.09,15.35,25.41,27.53,6.31,12.19,9.48,27.09,9.48,44.7,0,21.14-4.52,39.27-13.57,54.39-9.04,15.12-20.82,26.5-35.32,34.13-14.5,7.63-29.79,11.45-45.87,11.45-22.11,0-41.64-6.46-58.58-19.38l-32.73,15.86h-.86c-1.15,0-1.87-.59-2.15-1.76-.29-1.17,0-2.05.86-2.64,9.19-6.46,15.65-12.55,19.38-18.28,3.73-5.73,5.6-14.02,5.6-24.88v-217.57c0-10.57-1.08-18.2-3.23-22.9-2.15-4.69-5.81-7.05-10.98-7.05-4.02,0-10.48,1.91-19.38,5.73h-.86c-.86,0-1.51-.73-1.94-2.2-.43-1.47-.22-2.35.65-2.64l53.84-26.87,2.15-.44c.57,0,1.36.37,2.37,1.1,1,.74,1.51,1.54,1.51,2.42v178.37c10.91-11.74,21.82-21.06,32.73-27.97,10.91-6.9,23.26-10.35,37.04-10.35,12.34,0,23.83,3.08,34.46,9.25ZM411.37,383.86c9.33-13.21,14-32.15,14-56.81,0-26.42-5.03-46.68-15.07-60.78-10.05-14.09-23.41-21.14-40.06-21.14-9.76,0-19.1,2.72-28,8.15-8.9,5.44-18.09,12.99-27.56,22.68v72.23c0,12.92,3.08,23.49,9.26,31.71,6.17,8.22,13.71,14.24,22.61,18.06,8.9,3.82,17.51,5.73,25.84,5.73,16.65,0,29.64-6.61,38.98-19.82Z" fill="#fff" stroke-width="0"/>
</svg>